<?xml version="1.0" encoding="UTF-8"?>
<svg width="560px" height="206px" viewBox="0 0 560 206" version="1.1" xmlns="http://www.w3.org/2000/svg" xmlns:xlink="http://www.w3.org/1999/xlink">
    <!-- Generator: Sketch 52.3 (67297) - http://www.bohemiancoding.com/sketch -->
    <title>Group 42</title>
    <desc>Created with Sketch.</desc>
    <defs>
        <polygon id="path-1" points="0.731290909 0.476 17.6971091 0.476 17.6971091 16.9837286 0.731290909 16.9837286"></polygon>
        <polygon id="path-3" points="0.107747253 0.258548982 147.468989 0.258548982 147.468989 147.269976 0.107747253 147.269976"></polygon>
        <polygon id="path-5" points="0 0.663014815 57.8895549 0.663014815 57.8895549 65.8555333 0 65.8555333"></polygon>
    </defs>
    <g id="Page-1" stroke="none" stroke-width="1" fill="none" fill-rule="evenodd">
        <g id="tablet01" transform="translate(-104.000000, -104.000000)">
            <g id="Group-42" transform="translate(104.000000, 104.000000)">
                <g>
                    <g id="Group-3" transform="translate(485.000000, 0.000000)">
                        <mask id="mask-2" fill="white">
                            <use xlink:href="#path-1"></use>
                        </mask>
                        <g id="Clip-2"></g>
                        <path d="M17.6971091,2.42444286 C12.2447455,1.16239524 6.57147273,0.475919048 0.731290909,0.475919048 L0.731290909,15.3970619 C5.43747273,15.3970619 10.0094727,15.9588714 14.3990182,16.9837286 L17.6971091,2.42444286 Z" id="Fill-1" fill="#E6DCB3" mask="url(#mask-2)"></path>
                    </g>
                    <path d="M528.71375,34 L539,23.2403747 C533.053136,17.006007 526.034084,11.8204115 518.228976,8 L512,21.5458309 C518.301313,24.6678701 523.950793,28.9066575 528.71375,34" id="Fill-4" fill="#E6DCB3"></path>
                    <path d="M559,65.0459755 C557.594173,54.5189516 554.007032,44.6807586 548.704699,36 L536,44.5168301 C540.183477,51.5442291 542.962785,59.4989004 543.963038,68 L559,65.0459755 Z" id="Fill-6" fill="#E6DCB3"></path>
                    <g id="Group-10" transform="translate(412.000000, 2.000000)">
                        <mask id="mask-4" fill="white">
                            <use xlink:href="#path-3"></use>
                        </mask>
                        <g id="Clip-9"></g>
                        <path d="M132.462846,78.6192354 C129.671989,108.673048 104.529879,132.198506 73.9133956,132.198506 C41.4314615,132.198506 15.0988462,105.718771 15.0988462,73.0581967 C15.0988462,51.4690033 26.6086923,32.5936884 43.7897033,22.2696663 L47.7100769,28.8478983 C48.4500769,30.0866829 50.3073956,30.0858652 51.0547143,28.8438099 L66.5898352,3.04601989 C67.3355275,1.8056 66.4141868,0.256914917 64.9268681,0.258550276 L34.037967,0.292075138 C32.5514615,0.292892818 31.6162967,1.84403094 32.3562967,3.08281547 L36.0863846,9.34297017 C14.5418132,22.3015558 0.107747253,45.9774674 0.107747253,73.0581967 C0.107747253,114.043567 33.1515934,147.269976 73.9133956,147.269976 C112.716231,147.269976 144.501264,117.152385 147.469396,78.9029702 L132.462846,78.6192354 Z" id="Fill-8" fill="#E6DCB3" mask="url(#mask-4)"></path>
                    </g>
                    <g id="Group-13" transform="translate(0.000000, 54.000000)">
                        <mask id="mask-6" fill="white">
                            <use xlink:href="#path-5"></use>
                        </mask>
                        <g id="Clip-12"></g>
                        <path d="M33.0533014,56.8216815 C41.8300901,56.8216815 48.5531887,53.5624222 53.2209634,49.2781259 L57.8895549,56.1698296 C51.5405972,62.5025704 42.950062,65.8555333 33.0533014,65.8555333 C14.1918648,65.8555333 -0.000163380282,51.7918296 -0.000163380282,33.2596815 C-0.000163380282,14.7250889 14.1918648,0.663014815 33.0533014,0.663014815 C42.950062,0.663014815 51.5405972,4.01516296 57.8895549,10.3479037 L53.2209634,17.2396074 C48.5531887,12.9561259 41.8300901,9.69686667 33.0533014,9.69686667 C19.6079211,9.69686667 9.99054085,19.9407185 9.99054085,33.2596815 C9.99054085,46.5770148 19.6079211,56.8216815 33.0533014,56.8216815" id="Fill-11" fill="#FEFEFE" mask="url(#mask-6)"></path>
                    </g>
                    <path d="M93.4077916,109.899513 C106.871839,109.899513 116.437138,99.8712661 116.437138,86.5934258 C116.437138,73.1287339 106.871839,63.1931009 93.4077916,63.1931009 C80.128973,63.1931009 70.4718719,73.1287339 70.4718719,86.5934258 C70.4718719,99.8712661 80.128973,109.899513 93.4077916,109.899513 M93.4077916,54 C112.072067,54 126,67.9285714 126,86.5934258 C126,105.071429 112.072067,119 93.4077916,119 C74.9295579,119 61,105.071429 61,86.5934258 C61,67.9285714 74.9295579,54 93.4077916,54" id="Fill-14" fill="#FEFEFE"></path>
                    <polygon id="Fill-16" fill="#FEFEFE" points="195.328935 70.5291999 171.429926 99.7052224 169.570074 99.7052224 145.671065 70.5291999 145.671065 119 136 119 136 55 144.834701 55 170.5 86.3408386 196.258861 55 205 55 205 119 195.328935 119"></polygon>
                    <path d="M229.626018,63.564569 L229.626018,91.8002264 L247.119992,91.8002264 C254.801696,91.8002264 261.003096,86.5294057 261.003096,77.8709648 C261.003096,68.3652072 254.801696,63.564569 247.119992,63.564569 L229.626018,63.564569 Z M220,55 L248.600295,55 C260.633021,55 271,62.2470697 271,77.8709648 C271,91.9887935 260.633021,100.364795 248.600295,100.364795 L229.626018,100.364795 L229.626018,119 L220,119 L220,55 Z" id="Fill-18" fill="#FEFEFE"></path>
                    <path d="M288.614163,63.564569 L288.614163,87.6591614 L307.378279,87.6591614 C314.403703,87.6591614 319.949962,83.3295292 319.949962,75.7061488 C319.949962,67.5178905 314.403703,63.564569 307.378279,63.564569 L288.614163,63.564569 Z M279,55 L306.361707,55 C320.319551,55 329.933714,61.3058811 329.933714,75.5175817 C329.933714,86.5294057 322.076109,93.9642191 312.000162,95.2825418 L334,117.400062 L334,119 L322.90829,119 L300.07627,95.4711089 L288.614163,95.4711089 L288.614163,119 L279,119 L279,55 Z" id="Fill-20" fill="#FEFEFE"></path>
                    <polygon id="Fill-22" fill="#FEFEFE" points="342 119 342 55 391 55 391 63.6584409 351.280518 63.6584409 351.280518 81.6348957 384.22514 81.6348957 384.22514 90.29416 351.280518 90.29416 351.280518 110.340736 391 110.340736 391 119"></polygon>
                    <polygon id="Fill-24" fill="#FEFEFE" points="465.551881 46 477 46 477 109 461.362291 109 461.362291 63.6961545 443.956678 73.1462358 438 61.3791298"></polygon>
                    <path d="M498.238379,53 L498.238379,72.4026771 C501.390026,69.0112779 505.723946,67.0392693 511.240954,67.0392693 C522.430275,67.0392693 527,75.1633264 527,85.2593922 L527,109 L513.761621,109 L513.761621,87.4674234 C513.761621,82.182961 511.476758,79.2644208 506.511858,79.2644208 C502.099065,79.2644208 499.498713,82.0250701 498.238379,84.3918061 L498.238379,109 L485,109 L485,53 L498.238379,53 Z" id="Fill-26" fill="#FEFEFE"></path>
                    <path d="M136,206 L147.053598,158.170705 C147.765414,154.968522 147.527324,153.307374 145.269968,153.071234 L138.258174,152.357913 L139.090262,148.441591 L164.403903,145 L164.996264,145.592392 L160.59937,162.8028 L161.195004,162.8028 C167.135802,152.000844 174.384868,145 181.632298,145 C186.147828,145 189,147.254357 189,152.000844 C189,156.630487 185.67492,162.210408 180.9213,162.210408 C178.780126,162.210408 176.879496,161.1392 175.216956,159.9536 C173.670598,158.884844 172.125876,158.053861 170.698154,158.053861 C166.89853,158.053861 162.855908,166.363686 159.171648,179.299069 C156.91511,187.249374 154.77639,196.860826 152.638488,204.575809 L136,206 Z" id="Fill-28" fill="#E6DCB3"></path>
                    <path d="M221.941365,155.681026 C221.941365,152.357913 220.412093,150.460626 217.587637,150.460626 C210.649212,150.460626 202.648072,163.393557 200.99973,177.043078 C214.647352,174.312357 221.941365,164.938678 221.941365,155.681026 Z M232.058215,186.536053 C223.470638,202.201339 212.413383,206 202.177464,206 C193.706526,206 183,201.846722 183,185.46893 C183,176.32894 186.176804,166.599826 192.530412,158.528592 C198.881591,150.460626 207.941395,145 219.589137,145 C229.586917,145 237,150.339696 237,158.767999 C237,162.446547 236.177044,166.363686 231.587607,170.632175 C226.529992,175.142522 218.175694,178.940366 200.529932,182.381957 L200.529932,185.233608 C200.529932,191.639609 202.764711,198.168991 209.706376,198.168991 C216.763871,198.168991 222.293714,192.707548 228.529062,183.688487 L232.058215,186.536053 Z" id="Fill-30" fill="#E6DCB3"></path>
                    <path d="M277.531539,187.008245 C271.807343,197.877947 263.457948,206 252.365932,206 C245.448613,206 241.154029,201.698832 243.779227,191.308591 L253.798829,151.769095 L243.899114,151.769095 L245.328726,146.036122 L254.990309,146.036122 L257.374912,137.197756 L275.38589,128 L276.935389,128.9581 L271.688277,146.036122 L286,146.036122 L284.568746,151.769095 L270.494333,151.769095 L260.715327,191.308591 C260.119176,193.936169 259.999289,196.442854 262.387176,196.442854 C265.840909,196.442854 270.615863,190.710704 274.191125,184.738413 L277.531539,187.008245 Z" id="Fill-32" fill="#E6DCB3"></path>
                    <path d="M300.513434,129.458296 C300.513434,124.349025 303.780743,119 310.664026,119 C315.79837,119 320,121.854122 320,127.675288 C320,134.211621 315.915662,138.136858 309.96429,138.136858 C304.363187,138.136858 300.513434,134.807321 300.513434,129.458296 Z M318.366747,186.863142 C313.46538,196.848479 306.345907,206 295.029623,206 C287.210414,206 284.409059,201.006104 286.861751,191.854583 L295.844242,157.983155 C296.660466,154.773904 296.195315,153.229012 293.862325,152.991714 L287.093122,152.280638 L288.027442,148.357038 L314.864049,144.912125 L315.564589,145.622383 L303.546159,190.906209 C302.729934,193.993538 302.612642,196.490077 304.829946,196.490077 C307.514008,196.490077 311.947813,190.191042 314.864049,184.842018 L318.366747,186.863142 Z" id="Fill-34" fill="#E6DCB3"></path>
                    <path d="M324,206 L335.050667,158.170705 C335.764141,154.968522 335.52768,153.307374 333.266982,153.071234 L326.257426,152.357913 L327.089539,148.441591 L352.401507,145 L352.995523,145.592392 L348.599311,162.8028 L349.19251,162.8028 C355.133491,152.000844 362.384417,145 369.632071,145 C374.149376,145 377,147.254357 377,152.000844 C377,156.630487 373.674818,162.210408 368.919415,162.210408 C366.781447,162.210408 364.879122,161.1392 363.215713,159.9536 C361.670943,158.884844 360.126991,158.053861 358.700861,158.053861 C354.89703,158.053861 350.855919,166.363686 347.170727,179.299069 C344.914938,187.249374 342.776152,196.860826 340.638184,204.575809 L324,206 Z" id="Fill-36" fill="#E6DCB3"></path>
                    <path d="M409.942175,155.681026 C409.942175,152.357913 408.410473,150.460626 405.589257,150.460626 C398.646782,150.460626 390.647262,163.393557 389.00054,177.043078 C402.648972,174.312357 409.942175,164.938678 409.942175,155.681026 Z M420.058215,186.536053 C411.471448,202.201339 400.411763,206 390.177464,206 C381.706526,206 371,201.846722 371,185.46893 C371,176.32894 374.174374,166.599826 380.530412,158.528592 C386.883211,150.460626 395.942205,145 407.587517,145 C417.587727,145 425,150.339696 425,158.767999 C425,162.446547 424.176234,166.363686 419.589227,170.632175 C414.529992,175.142522 406.176504,178.940366 388.529932,182.381957 L388.529932,185.233608 C388.529932,191.639609 390.765521,198.168991 397.705566,198.168991 C404.765491,198.168991 410.294524,192.707548 416.529062,183.688487 L420.058215,186.536053 Z" id="Fill-38" fill="#E6DCB3"></path>
                    <path d="M76.4607999,117.248207 C71.005122,117.248207 65.8225551,122.817189 65.8225551,132.73353 C65.8225551,138.166505 68.1399099,143.465101 70.4580823,147.134864 C77.1435773,144.278704 83.5543259,136.674493 83.5543259,126.214122 C83.5543259,121.322734 80.6891138,117.248207 76.4607999,117.248207 M67.8684343,195.625247 C72.7787079,195.625247 78.7797901,193.723583 81.3718912,191.278704 C69.6420202,181.636008 60.2303217,167.236302 55.7297145,158.813602 C53.5480975,160.17205 47.9566818,166.015491 47.9566818,176.337411 C47.9566818,187.884214 56.5490474,195.625247 67.8684343,195.625247 M98.0104005,129.609426 C98.0104005,143.601109 85.0531655,148.899705 73.4590323,152.703847 C78.3709413,160.715266 86.4162673,171.584474 94.1909354,179.868723 C101.146271,171.718853 103.328705,157.183954 104.145585,146.725212 C108.647828,143.465101 115.603163,142.513862 119.559183,143.057893 C122.013911,147.402807 121.058841,154.331866 118.740668,158.541587 C114.103506,167.236302 109.056676,175.386172 98.6907249,184.624103 C105.099838,191.415526 110.966818,196.715751 118.195264,199.83904 L117.513304,204.320776 L113.829577,204.183954 C100.463493,203.77756 92.9627537,200.78865 86.4162673,195.625247 C79.1894565,201.739075 67.7318788,205 57.9121492,205 C38.8197296,205 29,193.181182 29,180.141553 C29,162.890574 43.7291856,156.639924 52.7295822,152.565396 C50.683703,148.490054 49.0474903,142.923514 49.0474903,138.166505 C49.0474903,121.595564 61.0496546,111 75.6439201,111 C88.3264087,111 98.0104005,118.064252 98.0104005,129.609426" id="Fill-40" fill="#E6DCB3"></path>
                </g>
            </g>
        </g>
    </g>
</svg>